HIERARCHY
ROOT hip
{
  OFFSET 0 0 0
  CHANNELS 6 Xposition Yposition Zposition Zrotation Yrotation Xrotation
  JOINT abdomen
  {
    OFFSET 0 20.6881 -0.73152
    CHANNELS 3 Zrotation Xrotation Yrotation
    JOINT chest
    {
      OFFSET 0 11.7043 -0.48768
      CHANNELS 3 Zrotation Xrotation Yrotation
      JOINT neck
      {
        OFFSET 0 22.1894 -2.19456
        CHANNELS 3 Zrotation Xrotation Yrotation
        JOINT head
        {
          OFFSET -0.24384 7.07133 1.2192
          CHANNELS 3 Zrotation Xrotation Yrotation
          JOINT leftEye
          {
            OFFSET 4.14528 8.04674 8.04672
            CHANNELS 3 Zrotation Xrotation Yrotation
            End Site
            {
              OFFSET 1 0 0
            }
          }
          JOINT rightEye
          {
            OFFSET -3.6576 8.04674 8.04672
            CHANNELS 3 Zrotation Xrotation Yrotation
            End Site
            {
              OFFSET 1 0 0
            }
          }
        }
      }
      JOINT rCollar
      {
        OFFSET -2.68224 19.2634 -4.8768
        CHANNELS 3 Zrotation Xrotation Yrotation
        JOINT rShldr
        {
          OFFSET -8.77824 -1.95073 1.46304
          CHANNELS 3 Zrotation Xrotation Yrotation
          JOINT rForeArm
          {
            OFFSET -28.1742 -1.7115 0.48768
            CHANNELS 3 Zrotation Xrotation Yrotation
            JOINT rHand
            {
              OFFSET -22.5879 0.773209 7.07136
              CHANNELS 3 Zrotation Xrotation Yrotation
              JOINT rThumb1
              {
                OFFSET -1.2192 -0.487915 3.41376
                CHANNELS 3 Zrotation Xrotation Yrotation
                JOINT rThumb2
                {
                  OFFSET -3.37035 -0.52449 3.41376
                  CHANNELS 3 Zrotation Xrotation Yrotation
                  End Site
                  {
                    OFFSET -1.78271 -1.18214 1.43049
                  }
                }
              }
              JOINT rIndex1
              {
                OFFSET -7.75947 0.938293 5.60832
                CHANNELS 3 Zrotation Xrotation Yrotation
                JOINT rIndex2
                {
                  OFFSET -2.54057 -0.884171 1.56538
                  CHANNELS 3 Zrotation Xrotation Yrotation
                  End Site
                  {
                    OFFSET -1.62519 -0.234802 1.16502
                  }
                }
              }
              JOINT rMid1
              {
                OFFSET -8.24714 1.18213 3.41376
                CHANNELS 3 Zrotation Xrotation Yrotation
                JOINT rMid2
                {
                  OFFSET -3.10165 -0.590103 1.0647
                  CHANNELS 3 Zrotation Xrotation Yrotation
                  End Site
                  {
                    OFFSET -2.48547 -0.328903 0.83742
                  }
                }
              }
              JOINT rRing1
              {
                OFFSET -8.82822 0.546677 1.51678
                CHANNELS 3 Zrotation Xrotation Yrotation
                JOINT rRing2
                {
                  OFFSET -2.60934 -0.819778 -0.0198488
                  CHANNELS 3 Zrotation Xrotation Yrotation
                  End Site
                  {
                    OFFSET -2.33842 -0.294052 0.168128
                  }
                }
              }
              JOINT rPinky1
              {
                OFFSET -8.27202 -0.0477905 -0.4584
                CHANNELS 3 Zrotation Xrotation Yrotation
                JOINT rPinky2
                {
                  OFFSET -1.82734 -0.647385 -0.700984
                  CHANNELS 3 Zrotation Xrotation Yrotation
                  End Site
                  {
                    OFFSET -1.69225 -0.51767 -0.607171
                  }
                }
              }
            }
          }
        }
      }
      JOINT lCollar
      {
        OFFSET 2.68224 19.2634 -4.8768
        CHANNELS 3 Zrotation Xrotation Yrotation
        JOINT lShldr
        {
          OFFSET 8.77824 -1.95073 1.46304
          CHANNELS 3 Zrotation Xrotation Yrotation
          JOINT lForeArm
          {
            OFFSET 28.1742 -1.7115 0.48768
            CHANNELS 3 Zrotation Xrotation Yrotation
            JOINT lHand
            {
              OFFSET 22.5879 0.773209 7.07136
              CHANNELS 3 Zrotation Xrotation Yrotation
              JOINT lThumb1
              {
                OFFSET 1.2192 -0.487915 3.41376
                CHANNELS 3 Zrotation Xrotation Yrotation
                JOINT lThumb2
                {
                  OFFSET 3.37035 -0.52449 3.41376
                  CHANNELS 3 Zrotation Xrotation Yrotation
                  End Site
                  {
                    OFFSET 1.78271 -1.18214 1.43049
                  }
                }
              }
              JOINT lIndex1
              {
                OFFSET 7.75947 0.938293 5.60832
                CHANNELS 3 Zrotation Xrotation Yrotation
                JOINT lIndex2
                {
                  OFFSET 2.54057 -0.884171 1.56538
                  CHANNELS 3 Zrotation Xrotation Yrotation
                  End Site
                  {
                    OFFSET 1.62519 -0.234802 1.16502
                  }
                }
              }
              JOINT lMid1
              {
                OFFSET 8.24714 1.18213 3.41376
                CHANNELS 3 Zrotation Xrotation Yrotation
                JOINT lMid2
                {
                  OFFSET 3.10165 -0.590103 1.0647
                  CHANNELS 3 Zrotation Xrotation Yrotation
                  End Site
                  {
                    OFFSET 2.48547 -0.328903 0.83742
                  }
                }
              }
              JOINT lRing1
              {
                OFFSET 8.82822 0.546677 1.51678
                CHANNELS 3 Zrotation Xrotation Yrotation
                JOINT lRing2
                {
                  OFFSET 2.60934 -0.819778 -0.0198488
                  CHANNELS 3 Zrotation Xrotation Yrotation
                  End Site
                  {
                    OFFSET 2.33842 -0.294052 0.168128
                  }
                }
              }
              JOINT lPinky1
              {
                OFFSET 8.27202 -0.0477905 -0.4584
                CHANNELS 3 Zrotation Xrotation Yrotation
                JOINT lPinky2
                {
                  OFFSET 1.82734 -0.647385 -0.700984
                  CHANNELS 3 Zrotation Xrotation Yrotation
                  End Site
                  {
                    OFFSET 1.69225 -0.51767 -0.607171
                  }
                }
              }
            }
          }
        }
      }
    }
  }
  JOINT rButtock
  {
    OFFSET -8.77824 4.35084 1.2192
    CHANNELS 3 Zrotation Xrotation Yrotation
    JOINT rThigh
    {
      OFFSET 0 -1.70687 -2.19456
      CHANNELS 3 Zrotation Xrotation Yrotation
      JOINT rShin
      {
        OFFSET 0 -36.8199 0.73152
        CHANNELS 3 Zrotation Xrotation Yrotation
        JOINT rFoot
        {
          OFFSET 0.73152 -45.1104 -5.12064
          CHANNELS 3 Zrotation Xrotation Yrotation
          End Site
          {
            OFFSET -1.1221 -3.69964 12.103
          }
        }
      }
    }
  }
  JOINT lButtock
  {
    OFFSET 8.77824 4.35084 1.2192
    CHANNELS 3 Zrotation Xrotation Yrotation
    JOINT lThigh
    {
      OFFSET 0 -1.70687 -2.19456
      CHANNELS 3 Zrotation Xrotation Yrotation
      JOINT lShin
      {
        OFFSET 0 -36.8199 0.73152
        CHANNELS 3 Zrotation Xrotation Yrotation
        JOINT lFoot
        {
          OFFSET -0.73152 -45.1104 -5.12064
          CHANNELS 3 Zrotation Xrotation Yrotation
          End Site
          {
            OFFSET 1.1221 -3.69964 12.103
          }
        }
      }
    }
  }
}
MOTION
Frames:	4
Frame Time:	0.00833333
-37.2405 83.4819 202.932 -132.184 -83.8104 143.249 6.29544 -18.5816 5.35441 -2.18096 2.2947 1.2038 -28.307 39.1865 -6.21476 69.2565 -31.8708 -8.59797 -0.0 0.0 0.0 -0.0 0.0 0.0 7.53324e-14 5.60771e-12 1.23938e-13 68.3597 24.0602 31.006 11.878 -57.7302 -131.52 -0.695747 22.9963 3.41945 5.72531e-10 8.18153e-11 8.37322e-11 9.94022e-10 1.43941e-10 1.30065e-10 5.72532e-10 8.1813e-11 8.37303e-11 7.73091 5.47488 0.417314 5.72531e-10 8.18138e-11 8.3731e-11 2.90554 0.965183 0.102902 5.72531e-10 8.18136e-11 8.3731e-11 10.2786 0.731801 0.0259123 5.72526e-10 8.18165e-11 8.37354e-11 2.22167 -0.733487 -0.20892 7.52197e-14 5.60771e-12 1.23523e-13 -57.4976 30.1278 -33.1038 -7.64587 -59.0617 139.44 0.670007 -22.5978 3.35337 7.12572e-10 -4.69124e-10 -4.3035e-10 1.23751e-09 -8.10656e-10 -7.29152e-10 7.12565e-10 -4.69126e-10 -4.3035e-10 -7.73091 5.47488 -0.417314 7.12572e-10 -4.69125e-10 -4.3036e-10 -2.90554 0.965183 -0.102902 7.12561e-10 -4.69125e-10 -4.30348e-10 -10.2786 0.731801 -0.0259123 7.12578e-10 -4.69122e-10 -4.30344e-10 -2.22167 -0.733487 0.20892 -2.03217e-16 0.0 -3.88251e-19 -19.3923 -5.97771 -0.137981 0.00378407 5.21754 0.0667674 -0.622409 0.749718 0.0868257 2.03217e-16 0.0 3.88251e-19 6.70529 -17.442 4.40729 0.0644915 14.0774 -0.246441 -0.276354 -9.16429 -4.82147
-37.2377 83.4826 202.928 -132.188 -83.8088 143.279 6.32944 -18.5913 5.44475 -2.43173 2.32602 1.2337 -28.0955 39.1458 -6.2747 69.3052 -31.8449 -8.65263 -0.0 0.0 0.0 -0.0 0.0 0.0 9.42828e-14 8.09474e-12 1.74533e-13 68.546 24.1154 30.8426 11.9928 -57.6875 -131.298 -0.701524 23.0846 3.43413 1.9608e-09 1.45765e-10 2.6981e-10 3.39967e-09 2.56763e-10 4.26098e-10 1.96081e-09 1.45762e-10 2.69806e-10 7.73091 5.47488 0.417314 1.9608e-09 1.45762e-10 2.6981e-10 2.90554 0.965183 0.102902 1.9608e-09 1.45761e-10 2.6981e-10 10.2786 0.731801 0.0259123 1.9608e-09 1.45763e-10 2.69813e-10 2.22167 -0.733487 -0.20892 9.41713e-14 8.09474e-12 1.74086e-13 -57.3232 30.1864 -32.9595 -7.7973 -59.0221 139.164 0.684676 -22.8244 3.39093 1.17045e-09 -6.97568e-10 5.73279e-10 2.00863e-09 -1.2065e-09 1.01771e-09 1.17044e-09 -6.9757e-10 5.73276e-10 -7.73091 5.47488 -0.417314 1.17045e-09 -6.97569e-10 5.73266e-10 -2.90554 0.965183 -0.102902 1.17044e-09 -6.97568e-10 5.73279e-10 -10.2786 0.731801 -0.0259123 1.17046e-09 -6.97565e-10 5.73282e-10 -2.22167 -0.733487 0.20892 -2.03217e-16 0.0 -3.88251e-19 -19.3928 -5.97676 -0.137929 0.00380247 5.21557 0.0669018 -0.622557 0.750723 0.0868651 2.03217e-16 0.0 3.88251e-19 6.70543 -17.4575 4.3984 0.0652836 14.0653 -0.246215 -0.272088 -9.15588 -4.80809
-37.2359 83.4836 202.925 -132.164 -83.8018 143.281 6.31748 -18.5937 5.4743 -2.39565 2.28959 1.24041 -28.0796 39.1029 -6.30502 69.2453 -31.8073 -8.72375 -0.0 0.0 0.0 -0.0 0.0 0.0 8.38145e-14 9.31582e-12 2.07968e-13 68.4677 24.2243 30.6366 12.1366 -57.633 -131.02 -0.704392 23.1282 3.44141 1.72085e-09 1.1802e-10 5.87476e-10 2.988e-09 2.08552e-10 9.79961e-10 1.72085e-09 1.18018e-10 5.87471e-10 7.73091 5.47488 0.417314 1.72085e-09 1.18017e-10 5.87478e-10 2.90554 0.965183 0.102902 1.72085e-09 1.18017e-10 5.87477e-10 10.2786 0.731801 0.0259123 1.72085e-09 1.18018e-10 5.87481e-10 2.22167 -0.733487 -0.20892 8.37106e-14 9.31582e-12 2.0754e-13 -57.439 30.3424 -32.6995 -7.97605 -58.9741 138.838 0.693678 -22.9626 3.41389 1.38794e-09 -8.08174e-10 9.09087e-12 2.39652e-09 -1.39718e-09 4.58158e-11 1.38794e-09 -8.08176e-10 9.0902e-12 -7.73091 5.47488 -0.417314 1.38795e-09 -8.08174e-10 9.08074e-12 -2.90554 0.965183 -0.102902 1.38794e-09 -8.08174e-10 9.09051e-12 -10.2786 0.731801 -0.0259123 1.38795e-09 -8.08171e-10 9.09056e-12 -2.22167 -0.733487 0.20892 -2.03217e-16 0.0 -3.88251e-19 -19.3931 -5.9758 -0.137885 0.00381797 5.21357 0.0670106 -0.622707 0.751733 0.0869048 2.03217e-16 0.0 3.88251e-19 6.70876 -17.4726 4.39592 0.0659175 14.0544 -0.246181 -0.26963 -9.1467 -4.80472
-37.2349 83.4846 202.922 -132.218 -83.8007 143.363 6.27876 -18.596 5.4774 -2.19939 2.21268 1.2361 -28.1647 39.0658 -6.32145 69.1175 -31.7687 -8.8076 -0.0 0.0 0.0 -0.0 0.0 0.0 5.53834e-14 9.89794e-12 2.33892e-13 68.2416 24.3662 30.3932 12.3031 -57.5684 -130.697 -0.705713 23.1484 3.44477 5.28397e-10 3.41142e-11 1.01188e-09 9.28546e-10 6.17773e-11 1.73617e-09 5.28404e-10 3.41162e-11 1.01188e-09 7.73091 5.47488 0.417314 5.28398e-10 3.41142e-11 1.01189e-09 2.90554 0.965183 0.102902 5.28404e-10 3.41144e-11 1.01189e-09 10.2786 0.731801 0.0259123 5.28399e-10 3.41136e-11 1.01189e-09 2.22167 -0.733487 -0.20892 5.52936e-14 9.89794e-12 2.33519e-13 -57.7167 30.5691 -32.3662 -8.18044 -58.9177 138.464 0.699876 -23.0581 3.42976 1.491e-09 -8.60761e-10 -1.49879e-09 2.60608e-09 -1.48667e-09 -2.56191e-09 1.491e-09 -8.60762e-10 -1.49878e-09 -7.73091 5.47488 -0.417314 1.491e-09 -8.60762e-10 -1.49879e-09 -2.90554 0.965183 -0.102902 1.491e-09 -8.60761e-10 -1.49878e-09 -10.2786 0.731801 -0.0259123 1.49101e-09 -8.60759e-10 -1.49879e-09 -2.22167 -0.733487 0.20892 -2.03217e-16 0.0 -3.88251e-19 -19.3934 -5.97472 -0.13784 0.00383114 5.21134 0.0670964 -0.622867 0.752846 0.0869481 2.03217e-16 0.0 3.88251e-19 6.71365 -17.4878 4.39902 0.0664998 14.043 -0.246241 -0.268502 -9.13659 -4.80895
